<?xml version="1.0" standalone="no"?>
<!DOCTYPE svg PUBLIC "-//W3C//DTD SVG 20010904//EN"
 "http://www.w3.org/TR/2001/REC-SVG-20010904/DTD/svg10.dtd">
<svg version="1.0" xmlns="http://www.w3.org/2000/svg"
 width="459.000000pt" height="225.000000pt" viewBox="0 0 459.000000 225.000000"
 preserveAspectRatio="xMidYMid meet">

<g transform="translate(0.000000,225.000000) scale(0.100000,-0.100000)"
fill="#000000" stroke="none">
<path d="M638 2046 c-15 -21 -25 -24 -85 -24 -40 0 -83 -7 -105 -16 -21 -9
-50 -16 -65 -16 -36 0 -51 -24 -59 -93 -6 -48 -4 -56 22 -87 27 -32 29 -38 27
-118 -1 -47 -6 -106 -12 -131 -44 -202 -43 -213 16 -370 22 -58 53 -120 103
-206 37 -64 32 -152 -10 -190 -58 -53 18 -128 93 -91 28 13 33 14 43 1 6 -8
14 -15 17 -15 3 0 32 -16 65 -35 79 -47 104 -54 261 -71 74 -7 136 -16 138
-18 11 -10 -55 -114 -95 -150 -55 -50 -79 -62 -150 -76 -48 -10 -68 -9 -122 5
-35 9 -73 21 -82 26 -19 10 -24 44 -8 54 6 3 10 32 10 65 0 50 -4 62 -29 89
-16 17 -39 31 -52 31 -68 0 -173 -113 -199 -216 -11 -44 -11 -57 5 -104 22
-65 78 -129 142 -160 27 -13 56 -27 65 -32 10 -4 26 -8 36 -8 10 0 23 -5 29
-11 11 -11 236 -7 288 5 105 25 249 111 336 198 76 77 103 142 104 248 0 88
-10 126 -52 190 -22 34 -22 37 -8 95 8 34 14 111 14 180 1 274 -65 434 -206
501 -49 23 -74 28 -157 30 -110 4 -120 8 -154 77 -28 55 -37 161 -22 265 13
99 8 127 -23 117 -12 -4 -33 -8 -47 -9 -23 -1 -25 3 -28 47 -3 52 -17 60 -44
23z"/>
<path d="M4266 1900 c-19 -17 -46 -50 -59 -73 -33 -57 -81 -211 -101 -327 -10
-52 -20 -113 -24 -134 -7 -37 -10 -40 -54 -52 -99 -25 -181 -93 -240 -199 -40
-70 -80 -93 -104 -60 -8 11 -12 29 -9 40 13 47 17 172 6 192 -23 45 -115 38
-184 -14 -48 -36 -112 -122 -148 -198 -37 -77 -38 -48 -4 105 30 131 26 145
-37 137 -67 -9 -83 -27 -108 -118 -12 -45 -24 -116 -27 -158 -6 -86 -24 -124
-77 -165 -54 -41 -96 -30 -96 23 0 14 12 96 27 183 30 182 29 188 -47 188 -41
0 -48 3 -59 26 -11 25 -15 26 -71 21 -107 -9 -213 -89 -271 -203 -29 -59 -46
-75 -79 -71 -23 2 -25 6 -24 52 0 28 4 78 8 112 8 58 7 63 -17 87 -71 71 -222
-22 -310 -192 -21 -39 -40 -72 -42 -72 -6 0 7 86 26 159 25 97 24 118 -2 126
-32 11 -84 -3 -107 -28 -27 -28 -59 -152 -68 -259 -7 -78 -8 -80 -49 -113 -96
-79 -217 -103 -283 -57 -17 13 -32 27 -32 32 0 5 24 16 53 24 125 38 209 114
223 201 9 64 -2 110 -37 150 -73 83 -215 70 -314 -29 -69 -68 -97 -141 -98
-252 -1 -69 3 -89 27 -138 48 -98 140 -142 278 -134 64 4 91 11 154 42 61 31
78 36 85 25 5 -8 9 -19 9 -25 0 -22 37 -44 73 -44 45 0 60 20 88 121 39 140
123 289 164 289 12 0 15 -14 15 -75 0 -68 2 -77 29 -107 28 -32 32 -33 105
-33 83 0 79 3 91 -67 3 -21 17 -51 32 -68 72 -86 196 -80 274 12 l26 31 22
-37 c27 -43 67 -66 116 -66 38 0 103 28 124 54 20 23 34 19 56 -17 16 -25 28
-33 57 -35 47 -4 72 22 89 92 34 143 123 311 164 311 18 0 20 -6 17 -56 -7
-115 41 -164 154 -157 l63 4 11 -50 c20 -92 84 -146 173 -146 60 0 87 11 138
57 23 21 44 34 46 28 18 -54 41 -81 75 -89 52 -13 88 4 88 41 0 16 -9 78 -21
138 l-22 110 81 165 c127 259 172 407 172 570 0 99 -9 132 -48 173 -22 23 -34
27 -79 27 -44 0 -58 -5 -87 -30z m107 -153 c14 -101 -48 -355 -121 -492 l-21
-40 0 60 c-1 136 54 465 85 513 22 34 50 14 57 -41z m-2647 -573 c20 -19 24
-31 19 -52 -9 -37 -52 -81 -102 -103 -52 -24 -75 -17 -67 20 19 85 48 135 88
151 31 13 35 12 62 -16z m1164 7 c0 -46 -52 -267 -70 -296 -35 -57 -94 -64
-121 -14 -30 57 15 212 81 278 51 51 110 68 110 32z m1183 -123 l6 -132 -30
-37 c-47 -60 -112 -69 -138 -20 -26 48 -3 177 43 239 27 37 83 82 101 82 8 0
14 -42 18 -132z"/>
</g>
</svg>
